<svg width="20" height="21" viewBox="0 0 20 21" fill="none" xmlns="http://www.w3.org/2000/svg">
<path d="M17.5 2.14211C17.8315 2.14211 18.1495 2.2746 18.3839 2.51042C18.6183 2.74625 18.75 3.0661 18.75 3.39961V13.4596C18.75 13.7931 18.6183 14.1129 18.3839 14.3488C18.1495 14.5846 17.8315 14.7171 17.5 14.7171H5.5175C4.85451 14.7172 4.21873 14.9823 3.75 15.454L1.25 17.969V3.39961C1.25 3.0661 1.3817 2.74625 1.61612 2.51042C1.85054 2.2746 2.16848 2.14211 2.5 2.14211H17.5ZM2.5 0.884613C1.83696 0.884613 1.20107 1.14958 0.732233 1.62124C0.263392 2.09289 0 2.73259 0 3.39961L0 19.4868C2.62686e-05 19.6112 0.0367407 19.7328 0.105497 19.8362C0.174252 19.9396 0.271959 20.0202 0.386249 20.0677C0.50054 20.1152 0.626276 20.1276 0.747545 20.1032C0.868814 20.0788 0.980163 20.0187 1.0675 19.9307L4.63375 16.343C4.86812 16.1072 5.18601 15.9746 5.5175 15.9746H17.5C18.163 15.9746 18.7989 15.7096 19.2678 15.238C19.7366 14.7663 20 14.1266 20 13.4596V3.39961C20 2.73259 19.7366 2.09289 19.2678 1.62124C18.7989 1.14958 18.163 0.884613 17.5 0.884613L2.5 0.884613Z" fill="#FAFAFA" fill-opacity="0.8"/>
<path d="M3.75 5.28585C3.75 5.1191 3.81585 4.95917 3.93306 4.84126C4.05027 4.72335 4.20924 4.6571 4.375 4.6571H15.625C15.7908 4.6571 15.9497 4.72335 16.0669 4.84126C16.1842 4.95917 16.25 5.1191 16.25 5.28585C16.25 5.45261 16.1842 5.61253 16.0669 5.73045C15.9497 5.84836 15.7908 5.9146 15.625 5.9146H4.375C4.20924 5.9146 4.05027 5.84836 3.93306 5.73045C3.81585 5.61253 3.75 5.45261 3.75 5.28585ZM3.75 8.4296C3.75 8.26284 3.81585 8.10292 3.93306 7.985C4.05027 7.86709 4.20924 7.80085 4.375 7.80085H15.625C15.7908 7.80085 15.9497 7.86709 16.0669 7.985C16.1842 8.10292 16.25 8.26284 16.25 8.4296C16.25 8.59635 16.1842 8.75627 16.0669 8.87419C15.9497 8.9921 15.7908 9.05834 15.625 9.05834H4.375C4.20924 9.05834 4.05027 8.9921 3.93306 8.87419C3.81585 8.75627 3.75 8.59635 3.75 8.4296ZM3.75 11.5733C3.75 11.4066 3.81585 11.2467 3.93306 11.1287C4.05027 11.0108 4.20924 10.9446 4.375 10.9446H10.625C10.7908 10.9446 10.9497 11.0108 11.0669 11.1287C11.1842 11.2467 11.25 11.4066 11.25 11.5733C11.25 11.7401 11.1842 11.9 11.0669 12.0179C10.9497 12.1358 10.7908 12.2021 10.625 12.2021H4.375C4.20924 12.2021 4.05027 12.1358 3.93306 12.0179C3.81585 11.9 3.75 11.7401 3.75 11.5733Z" fill="#FAFAFA" fill-opacity="0.8"/>
</svg>
