<svg width="15" height="18" viewBox="0 0 15 18" fill="none" xmlns="http://www.w3.org/2000/svg">
<path fill-rule="evenodd" clip-rule="evenodd" d="M8.33625 0.320922C8.10671 0.11432 7.80882 0 7.5 0C7.19118 0 6.89329 0.11432 6.66375 0.320922L4 2.71835V0H3V3.61837L0 6.31842V12.8184C0 13.3489 0.210714 13.8576 0.585786 14.2326C0.960859 14.6077 1.46957 14.8184 2 14.8184H13C13.5304 14.8184 14.0391 14.6077 14.4142 14.2326C14.7893 13.8576 15 13.3489 15 12.8184V6.31842L8.33625 0.320922ZM5.625 13.5665V10.4253C5.625 9.92802 5.82254 9.4511 6.17417 9.09947C6.52581 8.74784 7.00272 8.5503 7.5 8.5503C7.99728 8.5503 8.47419 8.74784 8.82583 9.09947C9.17746 9.4511 9.375 9.92802 9.375 10.4253V13.5665H5.625ZM13.75 12.8165C13.75 13.0155 13.671 13.2062 13.5303 13.3469C13.3897 13.4875 13.1989 13.5665 13 13.5665H10.625V10.4253C10.625 9.5965 10.2958 8.80164 9.70971 8.21559C9.12366 7.62954 8.3288 7.3003 7.5 7.3003C6.6712 7.3003 5.87634 7.62954 5.29029 8.21559C4.70424 8.80164 4.375 9.5965 4.375 10.4253V13.5665H2C1.80109 13.5665 1.61032 13.4875 1.46967 13.3469C1.32902 13.2062 1.25 13.0155 1.25 12.8165V6.87467L7.5 1.24967L13.75 6.87467V12.8165ZM0.75 16.25C0.75 15.9739 0.973858 15.75 1.25 15.75H13.75C14.0261 15.75 14.25 15.9739 14.25 16.25V16.75C14.25 17.0261 14.0261 17.25 13.75 17.25H1.25C0.973857 17.25 0.75 17.0261 0.75 16.75V16.25Z" fill="black" fill-opacity="0.5"/>
</svg>
