<svg width="9" height="9" viewBox="0 0 9 9" fill="none" xmlns="http://www.w3.org/2000/svg">
<path d="M4.5 8.99999C3.60999 8.99999 2.73996 8.73607 1.99994 8.24161C1.25991 7.74714 0.683138 7.04434 0.342544 6.22207C0.00194979 5.3998 -0.0871652 4.495 0.0864682 3.62209C0.260102 2.74917 0.688685 1.94735 1.31802 1.31802C1.94736 0.688679 2.74918 0.260096 3.62209 0.0864625C4.49501 -0.0871709 5.39981 0.00194406 6.22208 0.342538C7.04434 0.683133 7.74715 1.25991 8.24161 1.99993C8.73608 2.73995 9 3.60998 9 4.5C8.99871 5.69307 8.52419 6.83692 7.68056 7.68055C6.83692 8.52418 5.69308 8.9987 4.5 8.99999ZM4.5 0.749996C3.75832 0.749996 3.0333 0.96993 2.41661 1.38198C1.79993 1.79404 1.31928 2.37971 1.03545 3.06493C0.751625 3.75016 0.677363 4.50416 0.822057 5.23158C0.966752 5.95901 1.3239 6.6272 1.84835 7.15165C2.3728 7.67609 3.04098 8.03325 3.76841 8.17794C4.49584 8.32263 5.24984 8.24837 5.93506 7.96454C6.62029 7.68071 7.20596 7.20007 7.61801 6.58338C8.03007 5.9667 8.25 5.24167 8.25 4.5C8.24891 3.50577 7.85347 2.55258 7.15044 1.84955C6.44742 1.14653 5.49423 0.751088 4.5 0.749996Z" fill="black"/>
<path d="M2.98012 5.84925L2.58224 5.21325L4.12499 4.24687V2.25H4.87499V4.66237L2.98012 5.84925Z" fill="black"/>
</svg>
