<svg width="23" height="23" viewBox="0 0 23 23" fill="none" xmlns="http://www.w3.org/2000/svg">
<path d="M22.3215 11.017L11.9715 0.667C11.5575 0.253 10.9825 0 10.35 0H2.3C1.035 0 0 1.035 0 2.3V10.35C0 10.9825 0.253 11.5575 0.6785 11.983L11.0285 22.333C11.4425 22.747 12.0175 23 12.65 23C13.2825 23 13.8575 22.747 14.2715 22.3215L22.3215 14.2715C22.747 13.8575 23 13.2825 23 12.65C23 12.0175 22.7355 11.431 22.3215 11.017ZM4.025 5.75C3.0705 5.75 2.3 4.9795 2.3 4.025C2.3 3.0705 3.0705 2.3 4.025 2.3C4.9795 2.3 5.75 3.0705 5.75 4.025C5.75 4.9795 4.9795 5.75 4.025 5.75Z" fill="black"/>
<path d="M7.45027 9.47C7.45027 8.98333 7.59027 8.60333 7.87027 8.33C8.15694 8.05 8.52361 7.91 8.97027 7.91C9.41694 7.91 9.78027 8.05 10.0603 8.33C10.3469 8.60333 10.4903 8.98333 10.4903 9.47C10.4903 9.95667 10.3469 10.34 10.0603 10.62C9.78027 10.9 9.41694 11.04 8.97027 11.04C8.52361 11.04 8.15694 10.9 7.87027 10.62C7.59027 10.34 7.45027 9.95667 7.45027 9.47ZM13.5503 8.04L9.56027 15H8.44027L12.4303 8.04H13.5503ZM8.97027 8.6C8.55027 8.6 8.34027 8.89 8.34027 9.47C8.34027 10.0567 8.55027 10.35 8.97027 10.35C9.17027 10.35 9.32361 10.28 9.43027 10.14C9.54361 9.99333 9.60027 9.77 9.60027 9.47C9.60027 8.89 9.39027 8.6 8.97027 8.6ZM11.5203 13.56C11.5203 13.0733 11.6603 12.6933 11.9403 12.42C12.2269 12.14 12.5936 12 13.0403 12C13.4803 12 13.8403 12.14 14.1203 12.42C14.4069 12.6933 14.5503 13.0733 14.5503 13.56C14.5503 14.0467 14.4069 14.43 14.1203 14.71C13.8403 14.99 13.4803 15.13 13.0403 15.13C12.5936 15.13 12.2269 14.99 11.9403 14.71C11.6603 14.43 11.5203 14.0467 11.5203 13.56ZM13.0303 12.69C12.6103 12.69 12.4003 12.98 12.4003 13.56C12.4003 14.14 12.6103 14.43 13.0303 14.43C13.4503 14.43 13.6603 14.14 13.6603 13.56C13.6603 12.98 13.4503 12.69 13.0303 12.69Z" fill="white"/>
</svg>
