<svg width="20" height="21" viewBox="0 0 20 21" fill="none" xmlns="http://www.w3.org/2000/svg">
<path d="M10 10.5C11.3261 10.5 12.5979 9.99347 13.5355 9.09186C14.4732 8.19024 15 6.96738 15 5.69231C15 4.41723 14.4732 3.19437 13.5355 2.29275C12.5979 1.39114 11.3261 0.884613 10 0.884613C8.67392 0.884613 7.40215 1.39114 6.46447 2.29275C5.52678 3.19437 5 4.41723 5 5.69231C5 6.96738 5.52678 8.19024 6.46447 9.09186C7.40215 9.99347 8.67392 10.5 10 10.5ZM13.3333 5.69231C13.3333 6.54236 12.9821 7.3576 12.357 7.95867C11.7319 8.55975 10.8841 8.89743 10 8.89743C9.11594 8.89743 8.2681 8.55975 7.64298 7.95867C7.01786 7.3576 6.66667 6.54236 6.66667 5.69231C6.66667 4.84225 7.01786 4.02702 7.64298 3.42594C8.2681 2.82486 9.11594 2.48718 10 2.48718C10.8841 2.48718 11.7319 2.82486 12.357 3.42594C12.9821 4.02702 13.3333 4.84225 13.3333 5.69231ZM20 18.5128C20 20.1154 18.3333 20.1154 18.3333 20.1154H1.66667C1.66667 20.1154 0 20.1154 0 18.5128C0 16.9103 1.66667 12.1026 10 12.1026C18.3333 12.1026 20 16.9103 20 18.5128ZM18.3333 18.5064C18.3317 18.1122 18.0767 16.9263 16.9467 15.8397C15.86 14.7949 13.815 13.7051 10 13.7051C6.18333 13.7051 4.14 14.7949 3.05333 15.8397C1.92333 16.9263 1.67 18.1122 1.66667 18.5064H18.3333Z" fill="#FAFAFA" fill-opacity="0.8"/>
</svg>
