<svg width="20" height="20" viewBox="0 0 20 20" fill="none" xmlns="http://www.w3.org/2000/svg">
<path d="M6.37995 15.7092C5.22678 15.7092 4.29199 16.6698 4.29199 17.8546C4.29199 19.0395 5.22682 20 6.37995 20C7.53313 20 8.46791 19.0395 8.46791 17.8546C8.46795 16.6698 7.53313 15.7092 6.37995 15.7092ZM6.37995 19.0465C5.73931 19.0465 5.21998 18.5129 5.21998 17.8547C5.21998 17.1964 5.73931 16.6628 6.37995 16.6628C7.02059 16.6628 7.53992 17.1964 7.53992 17.8547C7.53996 18.5129 7.02059 19.0465 6.37995 19.0465Z" fill="white"/>
<path d="M15.1959 15.7092C14.0427 15.7092 13.1079 16.6698 13.1079 17.8546C13.1079 19.0395 14.0427 20 15.1959 20C16.349 20 17.2838 19.0395 17.2838 17.8546C17.2838 16.6698 16.349 15.7092 15.1959 15.7092ZM15.1959 19.0465C14.5552 19.0465 14.0359 18.5129 14.0359 17.8547C14.0359 17.1964 14.5552 16.6628 15.1959 16.6628C15.8365 16.6628 16.3558 17.1964 16.3558 17.8547C16.3559 18.5129 15.8365 19.0465 15.1959 19.0465Z" fill="white"/>
<path d="M19.9054 3.19432C19.8087 3.08587 19.6766 3.01797 19.5342 3.0036L4.43116 2.78906L4.01357 1.47796C3.71938 0.601505 2.92061 0.00980987 2.01838 0H0.463996C0.20773 0 0 0.213445 0 0.47676C0 0.740075 0.20773 0.953519 0.463996 0.953519H2.01838C2.52287 0.964972 2.9671 1.29782 3.13198 1.78786L6.07835 10.9178L5.84638 11.4661C5.58762 12.1516 5.66533 12.9233 6.05517 13.5399C6.44128 14.1456 7.09085 14.5194 7.79517 14.5411H16.8199C17.0762 14.5411 17.2839 14.3277 17.2839 14.0644C17.2839 13.8011 17.0762 13.5876 16.8199 13.5876H7.79512C7.39738 13.5774 7.03125 13.3624 6.82073 13.0155C6.61255 12.6728 6.56979 12.2507 6.70474 11.8713L6.89035 11.4422L16.6574 10.3933C17.7303 10.2719 18.6128 9.47013 18.8614 8.39091L19.975 3.59949C20.0252 3.46152 19.9986 3.30634 19.9054 3.19432ZM17.9566 8.17641C17.806 8.87113 17.232 9.38358 16.5415 9.43983L6.89035 10.4649L4.73277 3.74258L18.9542 3.95712L17.9566 8.17641Z" fill="white"/>
</svg>
