<svg width="20" height="21" viewBox="0 0 20 21" fill="none" xmlns="http://www.w3.org/2000/svg">
<path d="M19.4629 9.24907C19.4623 9.24863 19.4618 9.24804 19.4614 9.2476L11.3021 1.40327C10.9543 1.06875 10.492 0.884613 10.0001 0.884613C9.50827 0.884613 9.04589 1.06875 8.69795 1.40327L0.542983 9.24364C0.540236 9.24628 0.537337 9.24907 0.534742 9.25171C-0.179441 9.94232 -0.17822 11.0628 0.538252 11.7517C0.865586 12.0665 1.29776 12.2487 1.75999 12.268C1.77892 12.2697 1.79784 12.2706 1.81692 12.2706H2.14196V18.0434C2.14196 19.1859 3.10886 20.1154 4.29718 20.1154H7.48933C7.813 20.1154 8.07533 19.863 8.07533 19.552V15.026C8.07533 14.5047 8.51651 14.0807 9.0587 14.0807H10.9415C11.4837 14.0807 11.9247 14.5047 11.9247 15.026V19.552C11.9247 19.863 12.1871 20.1154 12.5107 20.1154H15.7029C16.8914 20.1154 17.8581 19.1859 17.8581 18.0434V12.2706H18.1597C18.6513 12.2706 19.1137 12.0865 19.4618 11.7518C20.1791 11.0619 20.1794 9.93938 19.4629 9.24907ZM18.633 10.9551C18.5065 11.0768 18.3384 11.1438 18.1597 11.1438H17.2721C16.9484 11.1438 16.6861 11.396 16.6861 11.7072V18.0434C16.6861 18.5646 16.2451 18.9886 15.7029 18.9886H13.0967V15.026C13.0967 13.8835 12.13 12.9539 10.9415 12.9539H9.0587C7.87023 12.9539 6.90334 13.8835 6.90334 15.026V18.9886H4.29718C3.75513 18.9886 3.31395 18.5646 3.31395 18.0434V11.7072C3.31395 11.396 3.05163 11.1438 2.72796 11.1438H1.85568C1.84652 11.1432 1.83752 11.1428 1.82821 11.1426C1.65363 11.1397 1.48989 11.0731 1.36719 10.955C1.10624 10.7041 1.10624 10.2958 1.36719 10.0447C1.36735 10.0447 1.36735 10.0446 1.3675 10.0444L1.36796 10.044L9.52689 2.19995C9.65325 2.07832 9.82126 2.01142 10.0001 2.01142C10.1788 2.01142 10.3468 2.07832 10.4733 2.19995L18.6304 10.0424C18.6317 10.0436 18.633 10.0447 18.6343 10.0459C18.8938 10.2972 18.8934 10.7047 18.633 10.9551Z" fill="white"/>
</svg>
