<svg width="242" height="39" viewBox="0 0 242 39" fill="none" xmlns="http://www.w3.org/2000/svg">
<path d="M8.55119 1.515L5.19119 7.92V12H4.14119V7.92L0.751188 1.515H1.93619L4.66619 6.96L7.38119 1.515H8.55119ZM13.973 12.12C13.203 12.12 12.508 11.95 11.888 11.61C11.278 11.26 10.793 10.77 10.433 10.14C10.083 9.5 9.90799 8.755 9.90799 7.905C9.90799 7.055 10.088 6.315 10.448 5.685C10.808 5.045 11.298 4.555 11.918 4.215C12.538 3.865 13.233 3.69 14.003 3.69C14.773 3.69 15.468 3.865 16.088 4.215C16.718 4.555 17.208 5.045 17.558 5.685C17.918 6.315 18.098 7.055 18.098 7.905C18.098 8.745 17.918 9.485 17.558 10.125C17.198 10.765 16.703 11.26 16.073 11.61C15.443 11.95 14.743 12.12 13.973 12.12ZM13.973 11.205C14.513 11.205 15.013 11.085 15.473 10.845C15.933 10.595 16.303 10.225 16.583 9.735C16.873 9.235 17.018 8.625 17.018 7.905C17.018 7.185 16.878 6.58 16.598 6.09C16.318 5.59 15.948 5.22 15.488 4.98C15.028 4.73 14.528 4.605 13.988 4.605C13.448 4.605 12.948 4.73 12.488 4.98C12.028 5.22 11.658 5.59 11.378 6.09C11.108 6.58 10.973 7.185 10.973 7.905C10.973 8.625 11.108 9.235 11.378 9.735C11.658 10.225 12.023 10.595 12.473 10.845C12.933 11.085 13.433 11.205 13.973 11.205ZM27.407 3.81V12H26.357V10.56C26.117 11.07 25.747 11.46 25.247 11.73C24.747 12 24.187 12.135 23.567 12.135C22.587 12.135 21.787 11.835 21.167 11.235C20.547 10.625 20.237 9.745 20.237 8.595V3.81H21.272V8.475C21.272 9.365 21.492 10.045 21.932 10.515C22.382 10.985 22.992 11.22 23.762 11.22C24.552 11.22 25.182 10.97 25.652 10.47C26.122 9.97 26.357 9.235 26.357 8.265V3.81H27.407ZM31.1542 5.265C31.3842 4.755 31.7342 4.36 32.2042 4.08C32.6842 3.8 33.2692 3.66 33.9592 3.66V4.755H33.6742C32.9142 4.755 32.3042 4.96 31.8442 5.37C31.3842 5.78 31.1542 6.465 31.1542 7.425V12H30.1042V3.81H31.1542V5.265ZM43.48 4.695H41.575V12H40.525V4.695H39.385V3.81H40.525V3.24C40.525 2.35 40.75 1.695 41.2 1.275C41.66 0.855 42.4 0.645 43.42 0.645V1.545C42.74 1.545 42.26 1.675 41.98 1.935C41.71 2.195 41.575 2.63 41.575 3.24V3.81H43.48V4.695ZM44.9529 7.89C44.9529 7.05 45.1179 6.315 45.4479 5.685C45.7879 5.045 46.2529 4.555 46.8429 4.215C47.4429 3.865 48.1179 3.69 48.8679 3.69C49.6479 3.69 50.3179 3.87 50.8779 4.23C51.4479 4.59 51.8579 5.05 52.1079 5.61V3.81H53.1579V12H52.1079V10.185C51.8479 10.745 51.4329 11.21 50.8629 11.58C50.3029 11.94 49.6329 12.12 48.8529 12.12C48.1129 12.12 47.4429 11.945 46.8429 11.595C46.2529 11.245 45.7879 10.75 45.4479 10.11C45.1179 9.47 44.9529 8.73 44.9529 7.89ZM52.1079 7.905C52.1079 7.245 51.9729 6.665 51.7029 6.165C51.4329 5.665 51.0629 5.28 50.5929 5.01C50.1329 4.74 49.6229 4.605 49.0629 4.605C48.4829 4.605 47.9629 4.735 47.5029 4.995C47.0429 5.255 46.6779 5.635 46.4079 6.135C46.1479 6.625 46.0179 7.21 46.0179 7.89C46.0179 8.56 46.1479 9.15 46.4079 9.66C46.6779 10.16 47.0429 10.545 47.5029 10.815C47.9629 11.075 48.4829 11.205 49.0629 11.205C49.6229 11.205 50.1329 11.07 50.5929 10.8C51.0629 10.53 51.4329 10.145 51.7029 9.645C51.9729 9.145 52.1079 8.565 52.1079 7.905ZM58.765 10.98L61.525 3.81H62.635L59.35 12H58.165L54.88 3.81H56.005L58.765 10.98ZM67.9431 12.12C67.1731 12.12 66.4781 11.95 65.8581 11.61C65.2481 11.26 64.7631 10.77 64.4031 10.14C64.0531 9.5 63.8781 8.755 63.8781 7.905C63.8781 7.055 64.0581 6.315 64.4181 5.685C64.7781 5.045 65.2681 4.555 65.8881 4.215C66.5081 3.865 67.2031 3.69 67.9731 3.69C68.7431 3.69 69.4381 3.865 70.0581 4.215C70.6881 4.555 71.1781 5.045 71.5281 5.685C71.8881 6.315 72.0681 7.055 72.0681 7.905C72.0681 8.745 71.8881 9.485 71.5281 10.125C71.1681 10.765 70.6731 11.26 70.0431 11.61C69.4131 11.95 68.7131 12.12 67.9431 12.12ZM67.9431 11.205C68.4831 11.205 68.9831 11.085 69.4431 10.845C69.9031 10.595 70.2731 10.225 70.5531 9.735C70.8431 9.235 70.9881 8.625 70.9881 7.905C70.9881 7.185 70.8481 6.58 70.5681 6.09C70.2881 5.59 69.9181 5.22 69.4581 4.98C68.9981 4.73 68.4981 4.605 67.9581 4.605C67.4181 4.605 66.9181 4.73 66.4581 4.98C65.9981 5.22 65.6281 5.59 65.3481 6.09C65.0781 6.58 64.9431 7.185 64.9431 7.905C64.9431 8.625 65.0781 9.235 65.3481 9.735C65.6281 10.225 65.9931 10.595 66.4431 10.845C66.9031 11.085 67.4031 11.205 67.9431 11.205ZM81.3771 3.81V12H80.3271V10.56C80.0871 11.07 79.7171 11.46 79.2171 11.73C78.7171 12 78.1571 12.135 77.5371 12.135C76.5571 12.135 75.7571 11.835 75.1371 11.235C74.5171 10.625 74.2071 9.745 74.2071 8.595V3.81H75.2421V8.475C75.2421 9.365 75.4621 10.045 75.9021 10.515C76.3521 10.985 76.9621 11.22 77.7321 11.22C78.5221 11.22 79.1521 10.97 79.6221 10.47C80.0921 9.97 80.3271 9.235 80.3271 8.265V3.81H81.3771ZM85.1243 5.265C85.3543 4.755 85.7043 4.36 86.1743 4.08C86.6543 3.8 87.2393 3.66 87.9293 3.66V4.755H87.6443C86.8843 4.755 86.2743 4.96 85.8143 5.37C85.3543 5.78 85.1243 6.465 85.1243 7.425V12H84.0743V3.81H85.1243V5.265ZM90.3339 2.265C90.1239 2.265 89.9439 2.19 89.7939 2.04C89.6439 1.89 89.5689 1.705 89.5689 1.485C89.5689 1.265 89.6439 1.085 89.7939 0.944999C89.9439 0.794999 90.1239 0.719999 90.3339 0.719999C90.5439 0.719999 90.7239 0.794999 90.8739 0.944999C91.0239 1.085 91.0989 1.265 91.0989 1.485C91.0989 1.705 91.0239 1.89 90.8739 2.04C90.7239 2.19 90.5439 2.265 90.3339 2.265ZM90.8589 3.81V12H89.8089V3.81H90.8589ZM94.9016 4.695V9.78C94.9016 10.28 94.9966 10.625 95.1866 10.815C95.3766 11.005 95.7116 11.1 96.1916 11.1H97.1516V12H96.0266C95.2866 12 94.7366 11.83 94.3766 11.49C94.0166 11.14 93.8366 10.57 93.8366 9.78V4.695H92.6966V3.81H93.8366V1.755H94.9016V3.81H97.1516V4.695H94.9016ZM106.593 7.485C106.593 7.845 106.583 8.12 106.563 8.31H99.7683C99.7983 8.93 99.9483 9.46 100.218 9.9C100.488 10.34 100.843 10.675 101.283 10.905C101.723 11.125 102.203 11.235 102.723 11.235C103.403 11.235 103.973 11.07 104.433 10.74C104.903 10.41 105.213 9.965 105.363 9.405H106.473C106.273 10.205 105.843 10.86 105.183 11.37C104.533 11.87 103.713 12.12 102.723 12.12C101.953 12.12 101.263 11.95 100.653 11.61C100.043 11.26 99.5633 10.77 99.2133 10.14C98.8733 9.5 98.7033 8.755 98.7033 7.905C98.7033 7.055 98.8733 6.31 99.2133 5.67C99.5533 5.03 100.028 4.54 100.638 4.2C101.248 3.86 101.943 3.69 102.723 3.69C103.503 3.69 104.183 3.86 104.763 4.2C105.353 4.54 105.803 5 106.113 5.58C106.433 6.15 106.593 6.785 106.593 7.485ZM105.528 7.455C105.538 6.845 105.413 6.325 105.153 5.895C104.903 5.465 104.558 5.14 104.118 4.92C103.678 4.7 103.198 4.59 102.678 4.59C101.898 4.59 101.233 4.84 100.683 5.34C100.133 5.84 99.8283 6.545 99.7683 7.455H105.528ZM114.281 0.9V12H113.231V0.9H114.281ZM120.543 12.12C119.773 12.12 119.078 11.95 118.458 11.61C117.848 11.26 117.363 10.77 117.003 10.14C116.653 9.5 116.478 8.755 116.478 7.905C116.478 7.055 116.658 6.315 117.018 5.685C117.378 5.045 117.868 4.555 118.488 4.215C119.108 3.865 119.803 3.69 120.573 3.69C121.343 3.69 122.038 3.865 122.658 4.215C123.288 4.555 123.778 5.045 124.128 5.685C124.488 6.315 124.668 7.055 124.668 7.905C124.668 8.745 124.488 9.485 124.128 10.125C123.768 10.765 123.273 11.26 122.643 11.61C122.013 11.95 121.313 12.12 120.543 12.12ZM120.543 11.205C121.083 11.205 121.583 11.085 122.043 10.845C122.503 10.595 122.873 10.225 123.153 9.735C123.443 9.235 123.588 8.625 123.588 7.905C123.588 7.185 123.448 6.58 123.168 6.09C122.888 5.59 122.518 5.22 122.058 4.98C121.598 4.73 121.098 4.605 120.558 4.605C120.018 4.605 119.518 4.73 119.058 4.98C118.598 5.22 118.228 5.59 117.948 6.09C117.678 6.58 117.543 7.185 117.543 7.905C117.543 8.625 117.678 9.235 117.948 9.735C118.228 10.225 118.593 10.595 119.043 10.845C119.503 11.085 120.003 11.205 120.543 11.205ZM126.402 7.905C126.402 7.055 126.572 6.315 126.912 5.685C127.252 5.045 127.722 4.555 128.322 4.215C128.922 3.865 129.607 3.69 130.377 3.69C131.387 3.69 132.217 3.94 132.867 4.44C133.527 4.94 133.952 5.62 134.142 6.48H133.017C132.877 5.89 132.572 5.43 132.102 5.1C131.642 4.76 131.067 4.59 130.377 4.59C129.827 4.59 129.332 4.715 128.892 4.965C128.452 5.215 128.102 5.59 127.842 6.09C127.592 6.58 127.467 7.185 127.467 7.905C127.467 8.625 127.592 9.235 127.842 9.735C128.102 10.235 128.452 10.61 128.892 10.86C129.332 11.11 129.827 11.235 130.377 11.235C131.067 11.235 131.642 11.07 132.102 10.74C132.572 10.4 132.877 9.93 133.017 9.33H134.142C133.952 10.17 133.527 10.845 132.867 11.355C132.207 11.865 131.377 12.12 130.377 12.12C129.607 12.12 128.922 11.95 128.322 11.61C127.722 11.26 127.252 10.77 126.912 10.14C126.572 9.5 126.402 8.755 126.402 7.905ZM135.902 7.89C135.902 7.05 136.067 6.315 136.397 5.685C136.737 5.045 137.202 4.555 137.792 4.215C138.392 3.865 139.067 3.69 139.817 3.69C140.597 3.69 141.267 3.87 141.827 4.23C142.397 4.59 142.807 5.05 143.057 5.61V3.81H144.107V12H143.057V10.185C142.797 10.745 142.382 11.21 141.812 11.58C141.252 11.94 140.582 12.12 139.802 12.12C139.062 12.12 138.392 11.945 137.792 11.595C137.202 11.245 136.737 10.75 136.397 10.11C136.067 9.47 135.902 8.73 135.902 7.89ZM143.057 7.905C143.057 7.245 142.922 6.665 142.652 6.165C142.382 5.665 142.012 5.28 141.542 5.01C141.082 4.74 140.572 4.605 140.012 4.605C139.432 4.605 138.912 4.735 138.452 4.995C137.992 5.255 137.627 5.635 137.357 6.135C137.097 6.625 136.967 7.21 136.967 7.89C136.967 8.56 137.097 9.15 137.357 9.66C137.627 10.16 137.992 10.545 138.452 10.815C138.912 11.075 139.432 11.205 140.012 11.205C140.572 11.205 141.082 11.07 141.542 10.8C142.012 10.53 142.382 10.145 142.652 9.645C142.922 9.145 143.057 8.565 143.057 7.905ZM147.854 0.9V12H146.804V0.9H147.854ZM155.998 5.265C156.228 4.755 156.578 4.36 157.048 4.08C157.528 3.8 158.113 3.66 158.803 3.66V4.755H158.518C157.758 4.755 157.148 4.96 156.688 5.37C156.228 5.78 155.998 6.465 155.998 7.425V12H154.948V3.81H155.998V5.265ZM168.092 7.485C168.092 7.845 168.082 8.12 168.062 8.31H161.267C161.297 8.93 161.447 9.46 161.717 9.9C161.987 10.34 162.342 10.675 162.782 10.905C163.222 11.125 163.702 11.235 164.222 11.235C164.902 11.235 165.472 11.07 165.932 10.74C166.402 10.41 166.712 9.965 166.862 9.405H167.972C167.772 10.205 167.342 10.86 166.682 11.37C166.032 11.87 165.212 12.12 164.222 12.12C163.452 12.12 162.762 11.95 162.152 11.61C161.542 11.26 161.062 10.77 160.712 10.14C160.372 9.5 160.202 8.755 160.202 7.905C160.202 7.055 160.372 6.31 160.712 5.67C161.052 5.03 161.527 4.54 162.137 4.2C162.747 3.86 163.442 3.69 164.222 3.69C165.002 3.69 165.682 3.86 166.262 4.2C166.852 4.54 167.302 5 167.612 5.58C167.932 6.15 168.092 6.785 168.092 7.485ZM167.027 7.455C167.037 6.845 166.912 6.325 166.652 5.895C166.402 5.465 166.057 5.14 165.617 4.92C165.177 4.7 164.697 4.59 164.177 4.59C163.397 4.59 162.732 4.84 162.182 5.34C161.632 5.84 161.327 6.545 161.267 7.455H167.027ZM173.133 12.12C172.193 12.12 171.423 11.905 170.823 11.475C170.233 11.035 169.903 10.44 169.833 9.69H170.913C170.963 10.15 171.178 10.525 171.558 10.815C171.948 11.095 172.468 11.235 173.118 11.235C173.688 11.235 174.133 11.1 174.453 10.83C174.783 10.56 174.948 10.225 174.948 9.825C174.948 9.545 174.858 9.315 174.678 9.135C174.498 8.955 174.268 8.815 173.988 8.715C173.718 8.605 173.348 8.49 172.878 8.37C172.268 8.21 171.773 8.05 171.393 7.89C171.013 7.73 170.688 7.495 170.418 7.185C170.158 6.865 170.028 6.44 170.028 5.91C170.028 5.51 170.148 5.14 170.388 4.8C170.628 4.46 170.968 4.19 171.408 3.99C171.848 3.79 172.348 3.69 172.908 3.69C173.788 3.69 174.498 3.915 175.038 4.365C175.578 4.805 175.868 5.415 175.908 6.195H174.858C174.828 5.715 174.638 5.33 174.288 5.04C173.948 4.74 173.478 4.59 172.878 4.59C172.348 4.59 171.918 4.715 171.588 4.965C171.258 5.215 171.093 5.525 171.093 5.895C171.093 6.215 171.188 6.48 171.378 6.69C171.578 6.89 171.823 7.05 172.113 7.17C172.403 7.28 172.793 7.405 173.283 7.545C173.873 7.705 174.343 7.86 174.693 8.01C175.043 8.16 175.343 8.38 175.593 8.67C175.843 8.96 175.973 9.345 175.983 9.825C175.983 10.265 175.863 10.66 175.623 11.01C175.383 11.35 175.048 11.62 174.618 11.82C174.188 12.02 173.693 12.12 173.133 12.12ZM179.625 4.695V9.78C179.625 10.28 179.72 10.625 179.91 10.815C180.1 11.005 180.435 11.1 180.915 11.1H181.875V12H180.75C180.01 12 179.46 11.83 179.1 11.49C178.74 11.14 178.56 10.57 178.56 9.78V4.695H177.42V3.81H178.56V1.755H179.625V3.81H181.875V4.695H179.625ZM183.426 7.89C183.426 7.05 183.591 6.315 183.921 5.685C184.261 5.045 184.726 4.555 185.316 4.215C185.916 3.865 186.591 3.69 187.341 3.69C188.121 3.69 188.791 3.87 189.351 4.23C189.921 4.59 190.331 5.05 190.581 5.61V3.81H191.631V12H190.581V10.185C190.321 10.745 189.906 11.21 189.336 11.58C188.776 11.94 188.106 12.12 187.326 12.12C186.586 12.12 185.916 11.945 185.316 11.595C184.726 11.245 184.261 10.75 183.921 10.11C183.591 9.47 183.426 8.73 183.426 7.89ZM190.581 7.905C190.581 7.245 190.446 6.665 190.176 6.165C189.906 5.665 189.536 5.28 189.066 5.01C188.606 4.74 188.096 4.605 187.536 4.605C186.956 4.605 186.436 4.735 185.976 4.995C185.516 5.255 185.151 5.635 184.881 6.135C184.621 6.625 184.491 7.21 184.491 7.89C184.491 8.56 184.621 9.15 184.881 9.66C185.151 10.16 185.516 10.545 185.976 10.815C186.436 11.075 186.956 11.205 187.536 11.205C188.096 11.205 188.606 11.07 189.066 10.8C189.536 10.53 189.906 10.145 190.176 9.645C190.446 9.145 190.581 8.565 190.581 7.905ZM201.423 3.81V12H200.373V10.56C200.133 11.07 199.763 11.46 199.263 11.73C198.763 12 198.203 12.135 197.583 12.135C196.603 12.135 195.803 11.835 195.183 11.235C194.563 10.625 194.253 9.745 194.253 8.595V3.81H195.288V8.475C195.288 9.365 195.508 10.045 195.948 10.515C196.398 10.985 197.008 11.22 197.778 11.22C198.568 11.22 199.198 10.97 199.668 10.47C200.138 9.97 200.373 9.235 200.373 8.265V3.81H201.423ZM205.171 5.265C205.401 4.755 205.751 4.36 206.221 4.08C206.701 3.8 207.286 3.66 207.976 3.66V4.755H207.691C206.931 4.755 206.321 4.96 205.861 5.37C205.401 5.78 205.171 6.465 205.171 7.425V12H204.121V3.81H205.171V5.265ZM209.375 7.89C209.375 7.05 209.54 6.315 209.87 5.685C210.21 5.045 210.675 4.555 211.265 4.215C211.865 3.865 212.54 3.69 213.29 3.69C214.07 3.69 214.74 3.87 215.3 4.23C215.87 4.59 216.28 5.05 216.53 5.61V3.81H217.58V12H216.53V10.185C216.27 10.745 215.855 11.21 215.285 11.58C214.725 11.94 214.055 12.12 213.275 12.12C212.535 12.12 211.865 11.945 211.265 11.595C210.675 11.245 210.21 10.75 209.87 10.11C209.54 9.47 209.375 8.73 209.375 7.89ZM216.53 7.905C216.53 7.245 216.395 6.665 216.125 6.165C215.855 5.665 215.485 5.28 215.015 5.01C214.555 4.74 214.045 4.605 213.485 4.605C212.905 4.605 212.385 4.735 211.925 4.995C211.465 5.255 211.1 5.635 210.83 6.135C210.57 6.625 210.44 7.21 210.44 7.89C210.44 8.56 210.57 9.15 210.83 9.66C211.1 10.16 211.465 10.545 211.925 10.815C212.385 11.075 212.905 11.205 213.485 11.205C214.045 11.205 214.555 11.07 215.015 10.8C215.485 10.53 215.855 10.145 216.125 9.645C216.395 9.145 216.53 8.565 216.53 7.905ZM224.117 3.66C225.097 3.66 225.897 3.965 226.517 4.575C227.137 5.175 227.447 6.05 227.447 7.2V12H226.412V7.32C226.412 6.43 226.187 5.75 225.737 5.28C225.297 4.81 224.692 4.575 223.922 4.575C223.132 4.575 222.502 4.825 222.032 5.325C221.562 5.825 221.327 6.56 221.327 7.53V12H220.277V3.81H221.327V5.205C221.587 4.705 221.962 4.325 222.452 4.065C222.942 3.795 223.497 3.66 224.117 3.66ZM231.434 4.695V9.78C231.434 10.28 231.529 10.625 231.719 10.815C231.909 11.005 232.244 11.1 232.724 11.1H233.684V12H232.559C231.819 12 231.269 11.83 230.909 11.49C230.549 11.14 230.369 10.57 230.369 9.78V4.695H229.229V3.81H230.369V1.755H231.434V3.81H233.684V4.695H231.434ZM238.536 12.12C237.596 12.12 236.826 11.905 236.226 11.475C235.636 11.035 235.306 10.44 235.236 9.69H236.316C236.366 10.15 236.581 10.525 236.961 10.815C237.351 11.095 237.871 11.235 238.521 11.235C239.091 11.235 239.536 11.1 239.856 10.83C240.186 10.56 240.351 10.225 240.351 9.825C240.351 9.545 240.261 9.315 240.081 9.135C239.901 8.955 239.671 8.815 239.391 8.715C239.121 8.605 238.751 8.49 238.281 8.37C237.671 8.21 237.176 8.05 236.796 7.89C236.416 7.73 236.091 7.495 235.821 7.185C235.561 6.865 235.431 6.44 235.431 5.91C235.431 5.51 235.551 5.14 235.791 4.8C236.031 4.46 236.371 4.19 236.811 3.99C237.251 3.79 237.751 3.69 238.311 3.69C239.191 3.69 239.901 3.915 240.441 4.365C240.981 4.805 241.271 5.415 241.311 6.195H240.261C240.231 5.715 240.041 5.33 239.691 5.04C239.351 4.74 238.881 4.59 238.281 4.59C237.751 4.59 237.321 4.715 236.991 4.965C236.661 5.215 236.496 5.525 236.496 5.895C236.496 6.215 236.591 6.48 236.781 6.69C236.981 6.89 237.226 7.05 237.516 7.17C237.806 7.28 238.196 7.405 238.686 7.545C239.276 7.705 239.746 7.86 240.096 8.01C240.446 8.16 240.746 8.38 240.996 8.67C241.246 8.96 241.376 9.345 241.386 9.825C241.386 10.265 241.266 10.66 241.026 11.01C240.786 11.35 240.451 11.62 240.021 11.82C239.591 12.02 239.096 12.12 238.536 12.12ZM18.6382 30.8C18.6382 29.94 18.7982 29.185 19.1182 28.535C19.4482 27.885 19.8932 27.385 20.4532 27.035C21.0132 26.685 21.6382 26.51 22.3282 26.51C22.8782 26.51 23.3782 26.625 23.8282 26.855C24.2882 27.085 24.6482 27.395 24.9082 27.785V23.9H27.4732V35H24.9082V33.8C24.6682 34.2 24.3232 34.52 23.8732 34.76C23.4332 35 22.9182 35.12 22.3282 35.12C21.6382 35.12 21.0132 34.945 20.4532 34.595C19.8932 34.235 19.4482 33.73 19.1182 33.08C18.7982 32.42 18.6382 31.66 18.6382 30.8ZM24.9082 30.815C24.9082 30.175 24.7282 29.67 24.3682 29.3C24.0182 28.93 23.5882 28.745 23.0782 28.745C22.5682 28.745 22.1332 28.93 21.7732 29.3C21.4232 29.66 21.2482 30.16 21.2482 30.8C21.2482 31.44 21.4232 31.95 21.7732 32.33C22.1332 32.7 22.5682 32.885 23.0782 32.885C23.5882 32.885 24.0182 32.7 24.3682 32.33C24.7282 31.96 24.9082 31.455 24.9082 30.815ZM37.5188 30.68C37.5188 30.92 37.5038 31.17 37.4738 31.43H31.6688C31.7088 31.95 31.8738 32.35 32.1638 32.63C32.4638 32.9 32.8288 33.035 33.2588 33.035C33.8988 33.035 34.3438 32.765 34.5938 32.225H37.3238C37.1838 32.775 36.9288 33.27 36.5588 33.71C36.1988 34.15 35.7438 34.495 35.1938 34.745C34.6438 34.995 34.0288 35.12 33.3488 35.12C32.5288 35.12 31.7988 34.945 31.1588 34.595C30.5188 34.245 30.0188 33.745 29.6588 33.095C29.2988 32.445 29.1188 31.685 29.1188 30.815C29.1188 29.945 29.2938 29.185 29.6438 28.535C30.0038 27.885 30.5038 27.385 31.1438 27.035C31.7838 26.685 32.5188 26.51 33.3488 26.51C34.1588 26.51 34.8788 26.68 35.5088 27.02C36.1388 27.36 36.6288 27.845 36.9788 28.475C37.3388 29.105 37.5188 29.84 37.5188 30.68ZM34.8938 30.005C34.8938 29.565 34.7438 29.215 34.4438 28.955C34.1438 28.695 33.7688 28.565 33.3188 28.565C32.8888 28.565 32.5238 28.69 32.2238 28.94C31.9338 29.19 31.7538 29.545 31.6838 30.005H34.8938ZM41.737 23.9V35H39.172V23.9H41.737ZM45.1858 25.76C44.7358 25.76 44.3658 25.63 44.0758 25.37C43.7958 25.1 43.6558 24.77 43.6558 24.38C43.6558 23.98 43.7958 23.65 44.0758 23.39C44.3658 23.12 44.7358 22.985 45.1858 22.985C45.6258 22.985 45.9858 23.12 46.2658 23.39C46.5558 23.65 46.7008 23.98 46.7008 24.38C46.7008 24.77 46.5558 25.1 46.2658 25.37C45.9858 25.63 45.6258 25.76 45.1858 25.76ZM46.4608 26.63V35H43.8958V26.63H46.4608ZM52.3847 32.6L54.1997 26.63H56.9297L53.9597 35H50.7947L47.8247 26.63H50.5697L52.3847 32.6ZM66.1993 30.68C66.1993 30.92 66.1843 31.17 66.1543 31.43H60.3493C60.3893 31.95 60.5543 32.35 60.8443 32.63C61.1443 32.9 61.5093 33.035 61.9393 33.035C62.5793 33.035 63.0243 32.765 63.2743 32.225H66.0043C65.8643 32.775 65.6093 33.27 65.2393 33.71C64.8793 34.15 64.4243 34.495 63.8743 34.745C63.3243 34.995 62.7093 35.12 62.0293 35.12C61.2093 35.12 60.4793 34.945 59.8393 34.595C59.1993 34.245 58.6993 33.745 58.3393 33.095C57.9793 32.445 57.7993 31.685 57.7993 30.815C57.7993 29.945 57.9743 29.185 58.3243 28.535C58.6843 27.885 59.1843 27.385 59.8243 27.035C60.4643 26.685 61.1993 26.51 62.0293 26.51C62.8393 26.51 63.5593 26.68 64.1893 27.02C64.8193 27.36 65.3093 27.845 65.6593 28.475C66.0193 29.105 66.1993 29.84 66.1993 30.68ZM63.5743 30.005C63.5743 29.565 63.4243 29.215 63.1243 28.955C62.8243 28.695 62.4493 28.565 61.9993 28.565C61.5693 28.565 61.2043 28.69 60.9043 28.94C60.6143 29.19 60.4343 29.545 60.3643 30.005H63.5743ZM70.4175 28.025C70.7175 27.565 71.0925 27.205 71.5425 26.945C71.9925 26.675 72.4925 26.54 73.0425 26.54V29.255H72.3375C71.6975 29.255 71.2175 29.395 70.8975 29.675C70.5775 29.945 70.4175 30.425 70.4175 31.115V35H67.8525V26.63H70.4175V28.025ZM82.4585 30.68C82.4585 30.92 82.4435 31.17 82.4135 31.43H76.6085C76.6485 31.95 76.8135 32.35 77.1035 32.63C77.4035 32.9 77.7685 33.035 78.1985 33.035C78.8385 33.035 79.2835 32.765 79.5335 32.225H82.2635C82.1235 32.775 81.8685 33.27 81.4985 33.71C81.1385 34.15 80.6835 34.495 80.1335 34.745C79.5835 34.995 78.9685 35.12 78.2885 35.12C77.4685 35.12 76.7385 34.945 76.0985 34.595C75.4585 34.245 74.9585 33.745 74.5985 33.095C74.2385 32.445 74.0585 31.685 74.0585 30.815C74.0585 29.945 74.2335 29.185 74.5835 28.535C74.9435 27.885 75.4435 27.385 76.0835 27.035C76.7235 26.685 77.4585 26.51 78.2885 26.51C79.0985 26.51 79.8185 26.68 80.4485 27.02C81.0785 27.36 81.5685 27.845 81.9185 28.475C82.2785 29.105 82.4585 29.84 82.4585 30.68ZM79.8335 30.005C79.8335 29.565 79.6835 29.215 79.3835 28.955C79.0835 28.695 78.7085 28.565 78.2585 28.565C77.8285 28.565 77.4635 28.69 77.1635 28.94C76.8735 29.19 76.6935 29.545 76.6235 30.005H79.8335ZM83.6016 30.8C83.6016 29.94 83.7616 29.185 84.0816 28.535C84.4116 27.885 84.8566 27.385 85.4166 27.035C85.9766 26.685 86.6016 26.51 87.2916 26.51C87.8416 26.51 88.3416 26.625 88.7916 26.855C89.2516 27.085 89.6116 27.395 89.8716 27.785V23.9H92.4366V35H89.8716V33.8C89.6316 34.2 89.2866 34.52 88.8366 34.76C88.3966 35 87.8816 35.12 87.2916 35.12C86.6016 35.12 85.9766 34.945 85.4166 34.595C84.8566 34.235 84.4116 33.73 84.0816 33.08C83.7616 32.42 83.6016 31.66 83.6016 30.8ZM89.8716 30.815C89.8716 30.175 89.6916 29.67 89.3316 29.3C88.9816 28.93 88.5516 28.745 88.0416 28.745C87.5316 28.745 87.0966 28.93 86.7366 29.3C86.3866 29.66 86.2116 30.16 86.2116 30.8C86.2116 31.44 86.3866 31.95 86.7366 32.33C87.0966 32.7 87.5316 32.885 88.0416 32.885C88.5516 32.885 88.9816 32.7 89.3316 32.33C89.6916 31.96 89.8716 31.455 89.8716 30.815ZM100.644 27.695V32.78C100.644 33.28 100.739 33.625 100.929 33.815C101.119 34.005 101.454 34.1 101.934 34.1H102.894V35H101.769C101.029 35 100.479 34.83 100.119 34.49C99.7585 34.14 99.5785 33.57 99.5785 32.78V27.695H98.4385V26.81H99.5785V24.755H100.644V26.81H102.894V27.695H100.644ZM108.51 35.12C107.74 35.12 107.045 34.95 106.425 34.61C105.815 34.26 105.33 33.77 104.97 33.14C104.62 32.5 104.445 31.755 104.445 30.905C104.445 30.055 104.625 29.315 104.985 28.685C105.345 28.045 105.835 27.555 106.455 27.215C107.075 26.865 107.77 26.69 108.54 26.69C109.31 26.69 110.005 26.865 110.625 27.215C111.255 27.555 111.745 28.045 112.095 28.685C112.455 29.315 112.635 30.055 112.635 30.905C112.635 31.745 112.455 32.485 112.095 33.125C111.735 33.765 111.24 34.26 110.61 34.61C109.98 34.95 109.28 35.12 108.51 35.12ZM108.51 34.205C109.05 34.205 109.55 34.085 110.01 33.845C110.47 33.595 110.84 33.225 111.12 32.735C111.41 32.235 111.555 31.625 111.555 30.905C111.555 30.185 111.415 29.58 111.135 29.09C110.855 28.59 110.485 28.22 110.025 27.98C109.565 27.73 109.065 27.605 108.525 27.605C107.985 27.605 107.485 27.73 107.025 27.98C106.565 28.22 106.195 28.59 105.915 29.09C105.645 29.58 105.51 30.185 105.51 30.905C105.51 31.625 105.645 32.235 105.915 32.735C106.195 33.225 106.56 33.595 107.01 33.845C107.47 34.085 107.97 34.205 108.51 34.205ZM126.015 26.81L121.155 38.855H120.06L121.65 34.955L118.29 26.81H119.445L122.235 33.8L124.935 26.81H126.015ZM131.324 35.12C130.554 35.12 129.859 34.95 129.239 34.61C128.629 34.26 128.144 33.77 127.784 33.14C127.434 32.5 127.259 31.755 127.259 30.905C127.259 30.055 127.439 29.315 127.799 28.685C128.159 28.045 128.649 27.555 129.269 27.215C129.889 26.865 130.584 26.69 131.354 26.69C132.124 26.69 132.819 26.865 133.439 27.215C134.069 27.555 134.559 28.045 134.909 28.685C135.269 29.315 135.449 30.055 135.449 30.905C135.449 31.745 135.269 32.485 134.909 33.125C134.549 33.765 134.054 34.26 133.424 34.61C132.794 34.95 132.094 35.12 131.324 35.12ZM131.324 34.205C131.864 34.205 132.364 34.085 132.824 33.845C133.284 33.595 133.654 33.225 133.934 32.735C134.224 32.235 134.369 31.625 134.369 30.905C134.369 30.185 134.229 29.58 133.949 29.09C133.669 28.59 133.299 28.22 132.839 27.98C132.379 27.73 131.879 27.605 131.339 27.605C130.799 27.605 130.299 27.73 129.839 27.98C129.379 28.22 129.009 28.59 128.729 29.09C128.459 29.58 128.324 30.185 128.324 30.905C128.324 31.625 128.459 32.235 128.729 32.735C129.009 33.225 129.374 33.595 129.824 33.845C130.284 34.085 130.784 34.205 131.324 34.205ZM144.758 26.81V35H143.708V33.56C143.468 34.07 143.098 34.46 142.598 34.73C142.098 35 141.538 35.135 140.918 35.135C139.938 35.135 139.138 34.835 138.518 34.235C137.898 33.625 137.588 32.745 137.588 31.595V26.81H138.623V31.475C138.623 32.365 138.843 33.045 139.283 33.515C139.733 33.985 140.343 34.22 141.113 34.22C141.903 34.22 142.533 33.97 143.003 33.47C143.473 32.97 143.708 32.235 143.708 31.265V26.81H144.758ZM148.505 28.265C148.735 27.755 149.085 27.36 149.555 27.08C150.035 26.8 150.62 26.66 151.31 26.66V27.755H151.025C150.265 27.755 149.655 27.96 149.195 28.37C148.735 28.78 148.505 29.465 148.505 30.425V35H147.455V26.81H148.505V28.265ZM157.126 30.89C157.126 30.05 157.296 29.315 157.636 28.685C157.976 28.045 158.441 27.555 159.031 27.215C159.631 26.865 160.306 26.69 161.056 26.69C161.776 26.69 162.426 26.865 163.006 27.215C163.586 27.565 164.011 28.02 164.281 28.58V23.9H165.331V35H164.281V33.17C164.031 33.74 163.621 34.21 163.051 34.58C162.481 34.94 161.811 35.12 161.041 35.12C160.291 35.12 159.616 34.945 159.016 34.595C158.426 34.245 157.961 33.75 157.621 33.11C157.291 32.47 157.126 31.73 157.126 30.89ZM164.281 30.905C164.281 30.245 164.146 29.665 163.876 29.165C163.606 28.665 163.236 28.28 162.766 28.01C162.306 27.74 161.796 27.605 161.236 27.605C160.656 27.605 160.136 27.735 159.676 27.995C159.216 28.255 158.851 28.635 158.581 29.135C158.321 29.625 158.191 30.21 158.191 30.89C158.191 31.56 158.321 32.15 158.581 32.66C158.851 33.16 159.216 33.545 159.676 33.815C160.136 34.075 160.656 34.205 161.236 34.205C161.796 34.205 162.306 34.07 162.766 33.8C163.236 33.53 163.606 33.145 163.876 32.645C164.146 32.145 164.281 31.565 164.281 30.905ZM171.613 35.12C170.843 35.12 170.148 34.95 169.528 34.61C168.918 34.26 168.433 33.77 168.073 33.14C167.723 32.5 167.548 31.755 167.548 30.905C167.548 30.055 167.728 29.315 168.088 28.685C168.448 28.045 168.938 27.555 169.558 27.215C170.178 26.865 170.873 26.69 171.643 26.69C172.413 26.69 173.108 26.865 173.728 27.215C174.358 27.555 174.848 28.045 175.198 28.685C175.558 29.315 175.738 30.055 175.738 30.905C175.738 31.745 175.558 32.485 175.198 33.125C174.838 33.765 174.343 34.26 173.713 34.61C173.083 34.95 172.383 35.12 171.613 35.12ZM171.613 34.205C172.153 34.205 172.653 34.085 173.113 33.845C173.573 33.595 173.943 33.225 174.223 32.735C174.513 32.235 174.658 31.625 174.658 30.905C174.658 30.185 174.518 29.58 174.238 29.09C173.958 28.59 173.588 28.22 173.128 27.98C172.668 27.73 172.168 27.605 171.628 27.605C171.088 27.605 170.588 27.73 170.128 27.98C169.668 28.22 169.298 28.59 169.018 29.09C168.748 29.58 168.613 30.185 168.613 30.905C168.613 31.625 168.748 32.235 169.018 32.735C169.298 33.225 169.663 33.595 170.113 33.845C170.573 34.085 171.073 34.205 171.613 34.205ZM181.537 35.12C180.767 35.12 180.072 34.95 179.452 34.61C178.842 34.26 178.357 33.77 177.997 33.14C177.647 32.5 177.472 31.755 177.472 30.905C177.472 30.055 177.652 29.315 178.012 28.685C178.372 28.045 178.862 27.555 179.482 27.215C180.102 26.865 180.797 26.69 181.567 26.69C182.337 26.69 183.032 26.865 183.652 27.215C184.282 27.555 184.772 28.045 185.122 28.685C185.482 29.315 185.662 30.055 185.662 30.905C185.662 31.745 185.482 32.485 185.122 33.125C184.762 33.765 184.267 34.26 183.637 34.61C183.007 34.95 182.307 35.12 181.537 35.12ZM181.537 34.205C182.077 34.205 182.577 34.085 183.037 33.845C183.497 33.595 183.867 33.225 184.147 32.735C184.437 32.235 184.582 31.625 184.582 30.905C184.582 30.185 184.442 29.58 184.162 29.09C183.882 28.59 183.512 28.22 183.052 27.98C182.592 27.73 182.092 27.605 181.552 27.605C181.012 27.605 180.512 27.73 180.052 27.98C179.592 28.22 179.222 28.59 178.942 29.09C178.672 29.58 178.537 30.185 178.537 30.905C178.537 31.625 178.672 32.235 178.942 32.735C179.222 33.225 179.587 33.595 180.037 33.845C180.497 34.085 180.997 34.205 181.537 34.205ZM188.926 28.265C189.156 27.755 189.506 27.36 189.976 27.08C190.456 26.8 191.041 26.66 191.731 26.66V27.755H191.446C190.686 27.755 190.076 27.96 189.616 28.37C189.156 28.78 188.926 29.465 188.926 30.425V35H187.876V26.81H188.926V28.265ZM196.431 35.12C195.491 35.12 194.721 34.905 194.121 34.475C193.531 34.035 193.201 33.44 193.131 32.69H194.211C194.261 33.15 194.476 33.525 194.856 33.815C195.246 34.095 195.766 34.235 196.416 34.235C196.986 34.235 197.431 34.1 197.751 33.83C198.081 33.56 198.246 33.225 198.246 32.825C198.246 32.545 198.156 32.315 197.976 32.135C197.796 31.955 197.566 31.815 197.286 31.715C197.016 31.605 196.646 31.49 196.176 31.37C195.566 31.21 195.071 31.05 194.691 30.89C194.311 30.73 193.986 30.495 193.716 30.185C193.456 29.865 193.326 29.44 193.326 28.91C193.326 28.51 193.446 28.14 193.686 27.8C193.926 27.46 194.266 27.19 194.706 26.99C195.146 26.79 195.646 26.69 196.206 26.69C197.086 26.69 197.796 26.915 198.336 27.365C198.876 27.805 199.166 28.415 199.206 29.195H198.156C198.126 28.715 197.936 28.33 197.586 28.04C197.246 27.74 196.776 27.59 196.176 27.59C195.646 27.59 195.216 27.715 194.886 27.965C194.556 28.215 194.391 28.525 194.391 28.895C194.391 29.215 194.486 29.48 194.676 29.69C194.876 29.89 195.121 30.05 195.411 30.17C195.701 30.28 196.091 30.405 196.581 30.545C197.171 30.705 197.641 30.86 197.991 31.01C198.341 31.16 198.641 31.38 198.891 31.67C199.141 31.96 199.271 32.345 199.281 32.825C199.281 33.265 199.161 33.66 198.921 34.01C198.681 34.35 198.346 34.62 197.916 34.82C197.486 35.02 196.991 35.12 196.431 35.12ZM202.922 27.695V32.78C202.922 33.28 203.017 33.625 203.207 33.815C203.397 34.005 203.732 34.1 204.212 34.1H205.172V35H204.047C203.307 35 202.757 34.83 202.397 34.49C202.037 34.14 201.857 33.57 201.857 32.78V27.695H200.717V26.81H201.857V24.755H202.922V26.81H205.172V27.695H202.922ZM214.614 30.485C214.614 30.845 214.604 31.12 214.584 31.31H207.789C207.819 31.93 207.969 32.46 208.239 32.9C208.509 33.34 208.864 33.675 209.304 33.905C209.744 34.125 210.224 34.235 210.744 34.235C211.424 34.235 211.994 34.07 212.454 33.74C212.924 33.41 213.234 32.965 213.384 32.405H214.494C214.294 33.205 213.864 33.86 213.204 34.37C212.554 34.87 211.734 35.12 210.744 35.12C209.974 35.12 209.284 34.95 208.674 34.61C208.064 34.26 207.584 33.77 207.234 33.14C206.894 32.5 206.724 31.755 206.724 30.905C206.724 30.055 206.894 29.31 207.234 28.67C207.574 28.03 208.049 27.54 208.659 27.2C209.269 26.86 209.964 26.69 210.744 26.69C211.524 26.69 212.204 26.86 212.784 27.2C213.374 27.54 213.824 28 214.134 28.58C214.454 29.15 214.614 29.785 214.614 30.485ZM213.549 30.455C213.559 29.845 213.434 29.325 213.174 28.895C212.924 28.465 212.579 28.14 212.139 27.92C211.699 27.7 211.219 27.59 210.699 27.59C209.919 27.59 209.254 27.84 208.704 28.34C208.154 28.84 207.849 29.545 207.789 30.455H213.549ZM217.87 28.61C218.13 28.06 218.54 27.605 219.1 27.245C219.67 26.875 220.345 26.69 221.125 26.69C221.865 26.69 222.53 26.865 223.12 27.215C223.72 27.555 224.185 28.045 224.515 28.685C224.855 29.315 225.025 30.05 225.025 30.89C225.025 31.73 224.855 32.47 224.515 33.11C224.185 33.75 223.72 34.245 223.12 34.595C222.53 34.945 221.865 35.12 221.125 35.12C220.355 35.12 219.685 34.94 219.115 34.58C218.545 34.21 218.13 33.75 217.87 33.2V38.87H216.835V26.81H217.87V28.61ZM223.96 30.89C223.96 30.21 223.825 29.625 223.555 29.135C223.295 28.635 222.935 28.255 222.475 27.995C222.015 27.735 221.495 27.605 220.915 27.605C220.355 27.605 219.84 27.74 219.37 28.01C218.91 28.28 218.545 28.665 218.275 29.165C218.005 29.665 217.87 30.245 217.87 30.905C217.87 31.565 218.005 32.145 218.275 32.645C218.545 33.145 218.91 33.53 219.37 33.8C219.84 34.07 220.355 34.205 220.915 34.205C221.495 34.205 222.015 34.075 222.475 33.815C222.935 33.545 223.295 33.16 223.555 32.66C223.825 32.15 223.96 31.56 223.96 30.89ZM227.437 35.075C227.217 35.075 227.032 35 226.882 34.85C226.742 34.7 226.672 34.515 226.672 34.295C226.672 34.075 226.742 33.895 226.882 33.755C227.032 33.605 227.217 33.53 227.437 33.53C227.647 33.53 227.822 33.605 227.962 33.755C228.112 33.895 228.187 34.075 228.187 34.295C228.187 34.515 228.112 34.7 227.962 34.85C227.822 35 227.647 35.075 227.437 35.075Z" fill="white"/>
</svg>
