<svg width="273" height="49" viewBox="0 0 273 49" fill="none" xmlns="http://www.w3.org/2000/svg">
<g filter="url(#filter0_d_1_656)">
<path d="M56.375 14.43C58.965 14.43 61.2283 14.9433 63.165 15.97C65.1017 16.9967 66.595 18.4433 67.645 20.31C68.7183 22.1533 69.255 24.2883 69.255 26.715C69.255 29.1183 68.7183 31.2533 67.645 33.12C66.595 34.9867 65.09 36.4333 63.13 37.46C61.1933 38.4867 58.9417 39 56.375 39H47.17V14.43H56.375ZM55.99 33.82C58.2533 33.82 60.015 33.2017 61.275 31.965C62.535 30.7283 63.165 28.9783 63.165 26.715C63.165 24.4517 62.535 22.69 61.275 21.43C60.015 20.17 58.2533 19.54 55.99 19.54H53.155V33.82H55.99ZM82.0847 19.225V24.195H90.0997V28.815H82.0847V34.205H91.1497V39H76.0997V14.43H91.1497V19.225H82.0847ZM104.52 34.38H112.36V39H98.5352V14.43H104.52V34.38ZM124.7 14.43V39H118.715V14.43H124.7ZM155.602 14.43L146.887 39H139.397L130.682 14.43H137.052L143.142 32.98L149.267 14.43H155.602ZM167.589 19.225V24.195H175.604V28.815H167.589V34.205H176.654V39H161.604V14.43H176.654V19.225H167.589ZM196.569 39L191.459 29.725H190.024V39H184.039V14.43H194.084C196.021 14.43 197.666 14.7683 199.019 15.445C200.396 16.1217 201.422 17.055 202.099 18.245C202.776 19.4117 203.114 20.7183 203.114 22.165C203.114 23.7983 202.647 25.2567 201.714 26.54C200.804 27.8233 199.451 28.7333 197.654 29.27L203.324 39H196.569ZM190.024 25.49H193.734C194.831 25.49 195.647 25.2217 196.184 24.685C196.744 24.1483 197.024 23.39 197.024 22.41C197.024 21.4767 196.744 20.7417 196.184 20.205C195.647 19.6683 194.831 19.4 193.734 19.4H190.024V25.49ZM216.356 19.225V24.195H224.371V28.815H216.356V34.205H225.421V39H210.371V14.43H225.421V19.225H216.356ZM238.792 19.225V24.195H246.807V28.815H238.792V34.205H247.857V39H232.807V14.43H247.857V19.225H238.792Z" fill="white"/>
<path d="M63.165 15.97L63.6334 15.0865V15.0865L63.165 15.97ZM67.645 20.31L66.7734 20.8003L66.7771 20.8068L66.7808 20.8132L67.645 20.31ZM67.645 33.12L66.7781 32.6215L66.7734 32.6297L67.645 33.12ZM63.13 37.46L62.666 36.5742L62.6616 36.5765L63.13 37.46ZM47.17 39H46.17V40H47.17V39ZM47.17 14.43V13.43H46.17V14.43H47.17ZM53.155 19.54V18.54H52.155V19.54H53.155ZM53.155 33.82H52.155V34.82H53.155V33.82ZM56.375 15.43C58.8313 15.43 60.9283 15.9161 62.6966 16.8535L63.6334 15.0865C61.5284 13.9706 59.0987 13.43 56.375 13.43V15.43ZM62.6966 16.8535C64.4682 17.7927 65.8197 19.1047 66.7734 20.8003L68.5166 19.8197C67.3703 17.782 65.7351 16.2007 63.6334 15.0865L62.6966 16.8535ZM66.7808 20.8132C67.7535 22.4837 68.255 24.4403 68.255 26.715H70.255C70.255 24.1363 69.6832 21.823 68.5092 19.8068L66.7808 20.8132ZM68.255 26.715C68.255 28.9642 67.7544 30.9236 66.7781 32.6215L68.5119 33.6185C69.6822 31.5831 70.255 29.2725 70.255 26.715H68.255ZM66.7734 32.6297C65.8215 34.3221 64.4608 35.6341 62.666 36.5742L63.594 38.3458C65.7193 37.2326 67.3685 35.6512 68.5166 33.6103L66.7734 32.6297ZM62.6616 36.5765C60.8921 37.5146 58.8063 38 56.375 38V40C59.077 40 61.4946 39.4588 63.5984 38.3435L62.6616 36.5765ZM56.375 38H47.17V40H56.375V38ZM48.17 39V14.43H46.17V39H48.17ZM47.17 15.43H56.375V13.43H47.17V15.43ZM55.99 34.82C58.4382 34.82 60.4798 34.1466 61.9755 32.6787L60.5745 31.2513C59.5502 32.2567 58.0685 32.82 55.99 32.82V34.82ZM61.9755 32.6787C63.4772 31.2048 64.165 29.1673 64.165 26.715H62.165C62.165 28.7894 61.5928 30.2519 60.5745 31.2513L61.9755 32.6787ZM64.165 26.715C64.165 24.2617 63.4769 22.2177 61.9821 20.7229L60.5679 22.1371C61.5931 23.1623 62.165 24.6416 62.165 26.715H64.165ZM61.9821 20.7229C60.4873 19.2281 58.4433 18.54 55.99 18.54V20.54C58.0634 20.54 59.5427 21.1119 60.5679 22.1371L61.9821 20.7229ZM55.99 18.54H53.155V20.54H55.99V18.54ZM52.155 19.54V33.82H54.155V19.54H52.155ZM53.155 34.82H55.99V32.82H53.155V34.82ZM82.0847 19.225V18.225H81.0847V19.225H82.0847ZM82.0847 24.195H81.0847V25.195H82.0847V24.195ZM90.0997 24.195H91.0997V23.195H90.0997V24.195ZM90.0997 28.815V29.815H91.0997V28.815H90.0997ZM82.0847 28.815V27.815H81.0847V28.815H82.0847ZM82.0847 34.205H81.0847V35.205H82.0847V34.205ZM91.1497 34.205H92.1497V33.205H91.1497V34.205ZM91.1497 39V40H92.1497V39H91.1497ZM76.0997 39H75.0997V40H76.0997V39ZM76.0997 14.43V13.43H75.0997V14.43H76.0997ZM91.1497 14.43H92.1497V13.43H91.1497V14.43ZM91.1497 19.225V20.225H92.1497V19.225H91.1497ZM81.0847 19.225V24.195H83.0847V19.225H81.0847ZM82.0847 25.195H90.0997V23.195H82.0847V25.195ZM89.0997 24.195V28.815H91.0997V24.195H89.0997ZM90.0997 27.815H82.0847V29.815H90.0997V27.815ZM81.0847 28.815V34.205H83.0847V28.815H81.0847ZM82.0847 35.205H91.1497V33.205H82.0847V35.205ZM90.1497 34.205V39H92.1497V34.205H90.1497ZM91.1497 38H76.0997V40H91.1497V38ZM77.0997 39V14.43H75.0997V39H77.0997ZM76.0997 15.43H91.1497V13.43H76.0997V15.43ZM90.1497 14.43V19.225H92.1497V14.43H90.1497ZM91.1497 18.225H82.0847V20.225H91.1497V18.225ZM104.52 34.38H103.52V35.38H104.52V34.38ZM112.36 34.38H113.36V33.38H112.36V34.38ZM112.36 39V40H113.36V39H112.36ZM98.5352 39H97.5352V40H98.5352V39ZM98.5352 14.43V13.43H97.5352V14.43H98.5352ZM104.52 14.43H105.52V13.43H104.52V14.43ZM104.52 35.38H112.36V33.38H104.52V35.38ZM111.36 34.38V39H113.36V34.38H111.36ZM112.36 38H98.5352V40H112.36V38ZM99.5352 39V14.43H97.5352V39H99.5352ZM98.5352 15.43H104.52V13.43H98.5352V15.43ZM103.52 14.43V34.38H105.52V14.43H103.52ZM124.7 14.43H125.7V13.43H124.7V14.43ZM124.7 39V40H125.7V39H124.7ZM118.715 39H117.715V40H118.715V39ZM118.715 14.43V13.43H117.715V14.43H118.715ZM123.7 14.43V39H125.7V14.43H123.7ZM124.7 38H118.715V40H124.7V38ZM119.715 39V14.43H117.715V39H119.715ZM118.715 15.43H124.7V13.43H118.715V15.43ZM155.602 14.43L156.545 14.7643L157.018 13.43H155.602V14.43ZM146.887 39V40H147.594L147.83 39.3343L146.887 39ZM139.397 39L138.455 39.3343L138.691 40H139.397V39ZM130.682 14.43V13.43H129.266L129.74 14.7643L130.682 14.43ZM137.052 14.43L138.002 14.1181L137.776 13.43H137.052V14.43ZM143.142 32.98L142.192 33.2919L143.139 36.1776L144.092 33.2935L143.142 32.98ZM149.267 14.43V13.43H148.544L148.318 14.1165L149.267 14.43ZM154.66 14.0957L145.945 38.6657L147.83 39.3343L156.545 14.7643L154.66 14.0957ZM146.887 38H139.397V40H146.887V38ZM140.34 38.6657L131.625 14.0957L129.74 14.7643L138.455 39.3343L140.34 38.6657ZM130.682 15.43H137.052V13.43H130.682V15.43ZM136.102 14.7419L142.192 33.2919L144.092 32.6681L138.002 14.1181L136.102 14.7419ZM144.092 33.2935L150.217 14.7435L148.318 14.1165L142.193 32.6665L144.092 33.2935ZM149.267 15.43H155.602V13.43H149.267V15.43ZM167.589 19.225V18.225H166.589V19.225H167.589ZM167.589 24.195H166.589V25.195H167.589V24.195ZM175.604 24.195H176.604V23.195H175.604V24.195ZM175.604 28.815V29.815H176.604V28.815H175.604ZM167.589 28.815V27.815H166.589V28.815H167.589ZM167.589 34.205H166.589V35.205H167.589V34.205ZM176.654 34.205H177.654V33.205H176.654V34.205ZM176.654 39V40H177.654V39H176.654ZM161.604 39H160.604V40H161.604V39ZM161.604 14.43V13.43H160.604V14.43H161.604ZM176.654 14.43H177.654V13.43H176.654V14.43ZM176.654 19.225V20.225H177.654V19.225H176.654ZM166.589 19.225V24.195H168.589V19.225H166.589ZM167.589 25.195H175.604V23.195H167.589V25.195ZM174.604 24.195V28.815H176.604V24.195H174.604ZM175.604 27.815H167.589V29.815H175.604V27.815ZM166.589 28.815V34.205H168.589V28.815H166.589ZM167.589 35.205H176.654V33.205H167.589V35.205ZM175.654 34.205V39H177.654V34.205H175.654ZM176.654 38H161.604V40H176.654V38ZM162.604 39V14.43H160.604V39H162.604ZM161.604 15.43H176.654V13.43H161.604V15.43ZM175.654 14.43V19.225H177.654V14.43H175.654ZM176.654 18.225H167.589V20.225H176.654V18.225ZM196.569 39L195.693 39.4826L195.978 40H196.569V39ZM191.459 29.725L192.335 29.2424L192.05 28.725H191.459V29.725ZM190.024 29.725V28.725H189.024V29.725H190.024ZM190.024 39V40H191.024V39H190.024ZM184.039 39H183.039V40H184.039V39ZM184.039 14.43V13.43H183.039V14.43H184.039ZM199.019 15.445L198.572 16.3394L198.578 16.3424L199.019 15.445ZM202.099 18.245L201.23 18.7393L201.234 18.7467L202.099 18.245ZM201.714 26.54L200.905 25.9518L200.898 25.9616L201.714 26.54ZM197.654 29.27L197.368 28.3118L196.15 28.6755L196.79 29.7735L197.654 29.27ZM203.324 39V40H205.064L204.188 38.4965L203.324 39ZM190.024 25.49H189.024V26.49H190.024V25.49ZM196.184 24.685L195.492 23.963L195.485 23.9704L195.477 23.9779L196.184 24.685ZM196.184 20.205L195.477 20.9121L195.485 20.9196L195.492 20.927L196.184 20.205ZM190.024 19.4V18.4H189.024V19.4H190.024ZM197.445 38.5174L192.335 29.2424L190.583 30.2076L195.693 39.4826L197.445 38.5174ZM191.459 28.725H190.024V30.725H191.459V28.725ZM189.024 29.725V39H191.024V29.725H189.024ZM190.024 38H184.039V40H190.024V38ZM185.039 39V14.43H183.039V39H185.039ZM184.039 15.43H194.084V13.43H184.039V15.43ZM194.084 15.43C195.908 15.43 197.391 15.7488 198.572 16.3394L199.466 14.5506C197.941 13.7878 196.134 13.43 194.084 13.43V15.43ZM198.578 16.3424C199.797 16.9418 200.664 17.7442 201.23 18.7393L202.968 17.7507C202.181 16.3658 200.994 15.3016 199.46 14.5476L198.578 16.3424ZM201.234 18.7467C201.816 19.7499 202.114 20.8813 202.114 22.165H204.114C204.114 20.5554 203.736 19.0734 202.964 17.7433L201.234 18.7467ZM202.114 22.165C202.114 23.5936 201.711 24.8447 200.905 25.9518L202.523 27.1282C203.584 25.6686 204.114 24.003 204.114 22.165H202.114ZM200.898 25.9616C200.141 27.0296 198.993 27.8264 197.368 28.3118L197.94 30.2282C199.908 29.6403 201.467 28.6171 202.53 27.1184L200.898 25.9616ZM196.79 29.7735L202.46 39.5035L204.188 38.4965L198.518 28.7665L196.79 29.7735ZM203.324 38H196.569V40H203.324V38ZM190.024 26.49H193.734V24.49H190.024V26.49ZM193.734 26.49C194.978 26.49 196.097 26.186 196.891 25.3921L195.477 23.9779C195.198 24.2573 194.684 24.49 193.734 24.49V26.49ZM196.876 25.407C197.682 24.6348 198.024 23.5865 198.024 22.41H196.024C196.024 23.1935 195.807 23.6618 195.492 23.963L196.876 25.407ZM198.024 22.41C198.024 21.2637 197.672 20.2459 196.876 19.483L195.492 20.927C195.816 21.2374 196.024 21.6896 196.024 22.41H198.024ZM196.891 19.4979C196.097 18.704 194.978 18.4 193.734 18.4V20.4C194.684 20.4 195.198 20.6327 195.477 20.9121L196.891 19.4979ZM193.734 18.4H190.024V20.4H193.734V18.4ZM189.024 19.4V25.49H191.024V19.4H189.024ZM216.356 19.225V18.225H215.356V19.225H216.356ZM216.356 24.195H215.356V25.195H216.356V24.195ZM224.371 24.195H225.371V23.195H224.371V24.195ZM224.371 28.815V29.815H225.371V28.815H224.371ZM216.356 28.815V27.815H215.356V28.815H216.356ZM216.356 34.205H215.356V35.205H216.356V34.205ZM225.421 34.205H226.421V33.205H225.421V34.205ZM225.421 39V40H226.421V39H225.421ZM210.371 39H209.371V40H210.371V39ZM210.371 14.43V13.43H209.371V14.43H210.371ZM225.421 14.43H226.421V13.43H225.421V14.43ZM225.421 19.225V20.225H226.421V19.225H225.421ZM215.356 19.225V24.195H217.356V19.225H215.356ZM216.356 25.195H224.371V23.195H216.356V25.195ZM223.371 24.195V28.815H225.371V24.195H223.371ZM224.371 27.815H216.356V29.815H224.371V27.815ZM215.356 28.815V34.205H217.356V28.815H215.356ZM216.356 35.205H225.421V33.205H216.356V35.205ZM224.421 34.205V39H226.421V34.205H224.421ZM225.421 38H210.371V40H225.421V38ZM211.371 39V14.43H209.371V39H211.371ZM210.371 15.43H225.421V13.43H210.371V15.43ZM224.421 14.43V19.225H226.421V14.43H224.421ZM225.421 18.225H216.356V20.225H225.421V18.225ZM238.792 19.225V18.225H237.792V19.225H238.792ZM238.792 24.195H237.792V25.195H238.792V24.195ZM246.807 24.195H247.807V23.195H246.807V24.195ZM246.807 28.815V29.815H247.807V28.815H246.807ZM238.792 28.815V27.815H237.792V28.815H238.792ZM238.792 34.205H237.792V35.205H238.792V34.205ZM247.857 34.205H248.857V33.205H247.857V34.205ZM247.857 39V40H248.857V39H247.857ZM232.807 39H231.807V40H232.807V39ZM232.807 14.43V13.43H231.807V14.43H232.807ZM247.857 14.43H248.857V13.43H247.857V14.43ZM247.857 19.225V20.225H248.857V19.225H247.857ZM237.792 19.225V24.195H239.792V19.225H237.792ZM238.792 25.195H246.807V23.195H238.792V25.195ZM245.807 24.195V28.815H247.807V24.195H245.807ZM246.807 27.815H238.792V29.815H246.807V27.815ZM237.792 28.815V34.205H239.792V28.815H237.792ZM238.792 35.205H247.857V33.205H238.792V35.205ZM246.857 34.205V39H248.857V34.205H246.857ZM247.857 38H232.807V40H247.857V38ZM233.807 39V14.43H231.807V39H233.807ZM232.807 15.43H247.857V13.43H232.807V15.43ZM246.857 14.43V19.225H248.857V14.43H246.857ZM247.857 18.225H238.792V20.225H247.857V18.225Z" fill="white"/>
</g>
<g filter="url(#filter1_d_1_656)">
<line x1="5" y1="19.5" x2="25" y2="19.5" stroke="white" stroke-width="3"/>
</g>
<g filter="url(#filter2_d_1_656)">
<line x1="5" y1="33.5" x2="25" y2="33.5" stroke="white" stroke-width="3"/>
</g>
<g filter="url(#filter3_d_1_656)">
<line x1="15" y1="26.5" x2="35" y2="26.5" stroke="white" stroke-width="3"/>
</g>
<defs>
<filter id="filter0_d_1_656" x="42.17" y="14.43" width="210.687" height="34.57" filterUnits="userSpaceOnUse" color-interpolation-filters="sRGB">
<feFlood flood-opacity="0" result="BackgroundImageFix"/>
<feColorMatrix in="SourceAlpha" type="matrix" values="0 0 0 0 0 0 0 0 0 0 0 0 0 0 0 0 0 0 127 0" result="hardAlpha"/>
<feOffset dy="5"/>
<feGaussianBlur stdDeviation="2.5"/>
<feColorMatrix type="matrix" values="0 0 0 0 0.308333 0 0 0 0 0.308333 0 0 0 0 0.308333 0 0 0 0.3 0"/>
<feBlend mode="normal" in2="BackgroundImageFix" result="effect1_dropShadow_1_656"/>
<feBlend mode="normal" in="SourceGraphic" in2="effect1_dropShadow_1_656" result="shape"/>
</filter>
<filter id="filter1_d_1_656" x="0" y="18" width="30" height="13" filterUnits="userSpaceOnUse" color-interpolation-filters="sRGB">
<feFlood flood-opacity="0" result="BackgroundImageFix"/>
<feColorMatrix in="SourceAlpha" type="matrix" values="0 0 0 0 0 0 0 0 0 0 0 0 0 0 0 0 0 0 127 0" result="hardAlpha"/>
<feOffset dy="5"/>
<feGaussianBlur stdDeviation="2.5"/>
<feColorMatrix type="matrix" values="0 0 0 0 0.308333 0 0 0 0 0.308333 0 0 0 0 0.308333 0 0 0 0.3 0"/>
<feBlend mode="normal" in2="BackgroundImageFix" result="effect1_dropShadow_1_656"/>
<feBlend mode="normal" in="SourceGraphic" in2="effect1_dropShadow_1_656" result="shape"/>
</filter>
<filter id="filter2_d_1_656" x="0" y="32" width="30" height="13" filterUnits="userSpaceOnUse" color-interpolation-filters="sRGB">
<feFlood flood-opacity="0" result="BackgroundImageFix"/>
<feColorMatrix in="SourceAlpha" type="matrix" values="0 0 0 0 0 0 0 0 0 0 0 0 0 0 0 0 0 0 127 0" result="hardAlpha"/>
<feOffset dy="5"/>
<feGaussianBlur stdDeviation="2.5"/>
<feColorMatrix type="matrix" values="0 0 0 0 0.308333 0 0 0 0 0.308333 0 0 0 0 0.308333 0 0 0 0.3 0"/>
<feBlend mode="normal" in2="BackgroundImageFix" result="effect1_dropShadow_1_656"/>
<feBlend mode="normal" in="SourceGraphic" in2="effect1_dropShadow_1_656" result="shape"/>
</filter>
<filter id="filter3_d_1_656" x="10" y="25" width="30" height="13" filterUnits="userSpaceOnUse" color-interpolation-filters="sRGB">
<feFlood flood-opacity="0" result="BackgroundImageFix"/>
<feColorMatrix in="SourceAlpha" type="matrix" values="0 0 0 0 0 0 0 0 0 0 0 0 0 0 0 0 0 0 127 0" result="hardAlpha"/>
<feOffset dy="5"/>
<feGaussianBlur stdDeviation="2.5"/>
<feColorMatrix type="matrix" values="0 0 0 0 0.308333 0 0 0 0 0.308333 0 0 0 0 0.308333 0 0 0 0.3 0"/>
<feBlend mode="normal" in2="BackgroundImageFix" result="effect1_dropShadow_1_656"/>
<feBlend mode="normal" in="SourceGraphic" in2="effect1_dropShadow_1_656" result="shape"/>
</filter>
</defs>
</svg>
