<svg width="20" height="21" viewBox="0 0 20 21" fill="none" xmlns="http://www.w3.org/2000/svg">
<path d="M18.2031 7.49491H15V2.23754C15 1.76549 14.7507 1.33551 14.3331 1.08732C13.9156 0.839161 13.4041 0.817 12.965 1.02812C12.9593 1.03083 12.9538 1.03361 12.9482 1.03646L1.35542 7.03555C0.519534 7.46813 0.000244141 8.3039 0.000244141 9.21664V9.22265V9.59824V18.3872C0.000244141 19.3398 0.806327 20.1149 1.79709 20.1149H18.2031C19.1939 20.1149 20 19.3398 20 18.3872V9.22265C20 8.26999 19.1939 7.49491 18.2031 7.49491ZM13.5294 2.10064C13.5914 2.07322 13.6431 2.09027 13.6759 2.10976C13.7097 2.12986 13.75 2.16836 13.75 2.23758V7.49494H3.10536L13.5294 2.10064ZM18.75 18.3872C18.75 18.6771 18.5047 18.913 18.2031 18.913H1.79709C1.49554 18.913 1.25023 18.6771 1.25023 18.3872V9.59824V9.22265C1.25023 8.93269 1.49554 8.69681 1.79709 8.69681H18.2031C18.5047 8.69681 18.75 8.93269 18.75 9.22265V18.3872Z" fill="white" fill-opacity="0.8"/>
<path d="M16.25 15.0073C15.5607 15.0073 15 14.4681 15 13.8053C15 13.1426 15.5607 12.6034 16.25 12.6034C16.9393 12.6034 17.5 13.1426 17.5 13.8053C17.5 14.4681 16.9392 15.0073 16.25 15.0073ZM16.25 13.8053C16.25 13.8059 16.25 13.8061 16.25 13.8061L16.25 13.8053Z" fill="white" fill-opacity="0.8"/>
</svg>
