<svg width="15" height="15" viewBox="0 0 15 15" fill="none" xmlns="http://www.w3.org/2000/svg">
<path d="M13.125 2.5H11.25V1.25C11.25 0.918479 11.1183 0.600537 10.8839 0.366117C10.6495 0.131696 10.3315 0 10 0L5 0C4.66848 0 4.35054 0.131696 4.11612 0.366117C3.8817 0.600537 3.75 0.918479 3.75 1.25V2.5H1.875C1.37772 2.5 0.900805 2.69754 0.549175 3.04917C0.197544 3.40081 0 3.87772 0 4.375L0 15H15V4.375C15 3.87772 14.8025 3.40081 14.4508 3.04917C14.0992 2.69754 13.6223 2.5 13.125 2.5ZM5 1.25H10V2.5H5V1.25ZM1.875 3.75H13.125C13.2908 3.75 13.4497 3.81585 13.5669 3.93306C13.6842 4.05027 13.75 4.20924 13.75 4.375V7.5H1.25V4.375C1.25 4.20924 1.31585 4.05027 1.43306 3.93306C1.55027 3.81585 1.70924 3.75 1.875 3.75ZM1.25 13.75V8.75H6.875V10H8.125V8.75H13.75V13.75H1.25Z" fill="black" fill-opacity="0.5"/>
</svg>
